<svg height="512" viewBox="0 0 64 64" width="512" xmlns="http://www.w3.org/2000/svg"><g id="zip-file"><path d="m61 6h-11.586l-3.707-3.707a1 1 0 0 0 -.707-.293h-28a1 1 0 0 0 -1 1v18h-13a1 1 0 0 0 -1 1v20a1 1 0 0 0 1 1h13v14a1 1 0 0 0 1 1h3v3a1 1 0 0 0 1 1h40a1 1 0 0 0 1-1v-54a1 1 0 0 0 -1-1zm-15-.586 8.586 8.586h-7.586a1 1 0 0 1 -1-1zm-42 17.586h48v18h-48zm14 20h35a1 1 0 0 0 1-1v-20a1 1 0 0 0 -1-1h-35v-17h26v9a3 3 0 0 0 3 3h9v40h-38zm42 17h-38v-2h35a1 1 0 0 0 1-1v-42a1 1 0 0 0 -.293-.707l-6.293-6.293h8.586z"/><path d="m23 27h4v10h-4v2h10v-2h-4v-10h4v-2h-10z"/><path d="m44 25h-8a1 1 0 0 0 -1 1v13h2v-6h7a1 1 0 0 0 1-1v-6a1 1 0 0 0 -1-1zm-1 6h-6v-4h6z"/><path d="m19 37h-5.132l6.964-10.445a1 1 0 0 0 -.832-1.555h-8a1 1 0 0 0 -1 1v3h2v-2h5.132l-6.964 10.445a1 1 0 0 0 .832 1.555h8a1 1 0 0 0 1-1v-3h-2z"/></g></svg>