<svg id="Layer_5" enable-background="new 0 0 64 64" height="512" viewBox="0 0 64 64" width="512" xmlns="http://www.w3.org/2000/svg" xmlns:xlink="http://www.w3.org/1999/xlink"><linearGradient id="SVGID_1_" gradientUnits="userSpaceOnUse" x1="32" x2="32" y1="63" y2="1"><stop offset="0" stop-color="#9f2fff"/><stop offset="1" stop-color="#0bb1d3"/></linearGradient><path d="m60 27c1.654 0 3-1.346 3-3v-2c0-1.654-1.346-3-3-3h-3v-1c0-3.768-2.33-6.998-5.623-8.337.991-.914 1.623-2.212 1.623-3.663 0-2.757-2.243-5-5-5s-5 2.243-5 5c0 1.451.632 2.749 1.623 3.663-2 .813-3.641 2.325-4.623 4.232-.983-1.907-2.623-3.419-4.623-4.232.991-.914 1.623-2.212 1.623-3.663 0-2.757-2.243-5-5-5s-5 2.243-5 5c0 1.451.632 2.749 1.623 3.663-2 .813-3.641 2.325-4.623 4.232-.983-1.907-2.623-3.419-4.623-4.232.991-.914 1.623-2.212 1.623-3.663 0-2.757-2.243-5-5-5s-5 2.243-5 5c0 1.451.632 2.749 1.623 3.663-3.293 1.339-5.623 4.569-5.623 8.337v1h-3c-1.654 0-3 1.346-3 3v2c0 1.654 1.346 3 3 3h1.474l9.625 14h-11.099c-1.654 0-3 1.346-3 3v16c0 1.654 1.346 3 3 3h24c1.654 0 3-1.346 3-3v-1h2v1c0 1.654 1.346 3 3 3h24c1.654 0 3-1.346 3-3v-16c0-1.654-1.346-3-3-3h-11.099l9.625-14zm-15-21c0-1.654 1.346-3 3-3s3 1.346 3 3-1.346 3-3 3-3-1.346-3-3zm3 5c3.859 0 7 3.14 7 7v1h-14v-1c0-3.86 3.141-7 7-7zm-19-5c0-1.654 1.346-3 3-3s3 1.346 3 3-1.346 3-3 3-3-1.346-3-3zm3 5c3.859 0 7 3.14 7 7v1h-14v-1c0-3.86 3.141-7 7-7zm-19-5c0-1.654 1.346-3 3-3s3 1.346 3 3-1.346 3-3 3-3-1.346-3-3zm-4 12c0-3.86 3.141-7 7-7s7 3.14 7 7v1h-14zm-6 6v-2c0-.551.448-1 1-1h56c.552 0 1 .449 1 1v2c0 .551-.448 1-1 1h-56c-.552 0-1-.449-1-1zm7 26c0-1.654 1.346-3 3-3s3 1.346 3 3-1.346 3-3 3-3-1.346-3-3zm-3 11c0-3.309 2.691-6 6-6s6 2.691 6 6zm22-1c0 .551-.448 1-1 1h-7c0-3.232-1.93-6.016-4.695-7.277 1.031-.917 1.695-2.238 1.695-3.723 0-2.757-2.243-5-5-5s-5 2.243-5 5c0 1.485.664 2.806 1.695 3.723-2.765 1.261-4.695 4.045-4.695 7.277h-1c-.552 0-1-.449-1-1v-16c0-.551.448-1 1-1h24c.552 0 1 .449 1 1zm13-10c0-1.654 1.346-3 3-3s3 1.346 3 3-1.346 3-3 3-3-1.346-3-3zm-3 11c0-3.309 2.691-6 6-6s6 2.691 6 6zm22-17v16c0 .551-.448 1-1 1h-7c0-3.232-1.93-6.016-4.695-7.277 1.031-.917 1.695-2.238 1.695-3.723 0-2.757-2.243-5-5-5s-5 2.243-5 5c0 1.485.664 2.806 1.695 3.723-2.765 1.261-4.695 4.045-4.695 7.277h-1c-.552 0-1-.449-1-1v-16c0-.551.448-1 1-1h24c.552 0 1 .449 1 1zm-14.526-3h-10.474c-1.654 0-3 1.346-3 3v13h-2v-13c0-1.654-1.346-3-3-3h-10.474l-9.625-14h48.198zm-10.474-4c1.654 0 3-1.346 3-3s-1.346-3-3-3-3 1.346-3 3 1.346 3 3 3zm0-4c.552 0 1 .449 1 1s-.448 1-1 1-1-.449-1-1 .448-1 1-1zm8 4c1.654 0 3-1.346 3-3s-1.346-3-3-3-3 1.346-3 3 1.346 3 3 3zm0-4c.552 0 1 .449 1 1s-.448 1-1 1-1-.449-1-1 .448-1 1-1zm-16 4c1.654 0 3-1.346 3-3s-1.346-3-3-3-3 1.346-3 3 1.346 3 3 3zm0-4c.552 0 1 .449 1 1s-.448 1-1 1-1-.449-1-1 .448-1 1-1zm-8 4c1.654 0 3-1.346 3-3s-1.346-3-3-3-3 1.346-3 3 1.346 3 3 3zm0-4c.552 0 1 .449 1 1s-.448 1-1 1-1-.449-1-1 .448-1 1-1zm1 26h6v-6h-6zm2-4h2v2h-2zm-3-10h7v2h-7zm0 4h7v2h-7zm33 10h6v-6h-6zm2-4h2v2h-2zm4-4h-7v-2h7z" fill="url(#SVGID_1_)"/></svg>